<svg xmlns="http://www.w3.org/2000/svg" version="1.1" xmlns:xlink="http://www.w3.org/1999/xlink" xmlns:svgjs="http://svgjs.dev/svgjs" width="2000" height="2339" viewBox="0 0 2000 2339"><g transform="matrix(1,0,0,1,-2.7870410645527954,0)"><svg viewBox="0 0 171 200" data-background-color="#ffffff" preserveAspectRatio="xMidYMid meet" height="2339" width="2000" xmlns="http://www.w3.org/2000/svg" xmlns:xlink="http://www.w3.org/1999/xlink"><g id="tight-bounds" transform="matrix(1,0,0,1,0.23829201101926856,0)"><svg viewBox="0 0 170.52341597796143 200" height="200" width="170.52341597796143"><g><svg viewBox="0 0 170.52341597796143 200" height="200" width="170.52341597796143"><g><svg viewBox="0 0 170.52341597796143 200" height="200" width="170.52341597796143"><g id="textblocktransform"><svg viewBox="0 0 170.52341597796143 200" height="200" width="170.52341597796143" id="textblock"><g><svg viewBox="0 0 170.52341597796143 200" height="200" width="170.52341597796143"><g transform="matrix(1,0,0,1,0,0)"><svg width="170.52341597796143" viewBox="1 -36.1 30.95 36.300000000000004" height="200" data-palette-color="#c9c9c9"><path d="M5.85 0.2L5.85 0.2Q4.05 0.2 2.65-1.38 1.25-2.95 1.25-6.3L1.25-6.3Q1.25-8.65 1.88-11 2.5-13.35 3.15-15.3L3.15-15.3Q4.15-18.5 4.9-21.2 5.65-23.9 5.65-26.35L5.65-26.35Q5.65-28.05 5.28-28.7 4.9-29.35 4.3-29.35L4.3-29.35Q3.65-29.35 2.88-28.65 2.1-27.95 1.35-26.5L1.35-26.5 1-26.6Q1.1-29.5 2.25-31.6 3.4-33.7 5.15-34.85 6.9-36 8.75-36L8.75-36Q10.85-36 12.35-34.33 13.85-32.65 13.85-28.55L13.85-28.55Q13.85-26.4 13.43-24.05 13-21.7 12.45-19.35L12.45-19.35Q14.15-20.05 16.05-20.35 17.95-20.65 20.1-20.65L20.1-20.65 21.4-20.65Q22.05-23.15 22.53-25.58 23-28 23-30.1L23-30.1Q23-30.85 22.93-31.5 22.85-32.15 22.75-32.75L22.75-32.75 22.75-33.15Q23.5-34.5 24.93-35.3 26.35-36.1 27.8-36.1L27.8-36.1Q29.45-36.1 30.7-35.02 31.95-33.95 31.95-31.6L31.95-31.6Q31.95-29.85 31.28-27.1 30.6-24.35 29.75-21.45L29.75-21.45Q28.75-17.9 27.93-14.58 27.1-11.25 27.1-8.95L27.1-8.95Q27.1-7.4 27.6-6.5 28.1-5.6 29.2-5.6L29.2-5.6Q30.7-5.6 31.45-7.05L31.45-7.05 31.75-6.9Q31.7-4.8 30.6-3.2 29.5-1.6 27.88-0.7 26.25 0.2 24.55 0.2L24.55 0.2Q23.05 0.2 21.73-0.58 20.4-1.35 19.58-3 18.75-4.65 18.75-7.3L18.75-7.3Q18.75-9.05 19.13-11.13 19.5-13.2 20-15.35L20-15.35Q17.7-15.5 15.5-15.5L15.5-15.5Q14.4-15.5 13.4-15.45 12.4-15.4 11.5-15.3L11.5-15.3Q11.05-13.3 10.73-11.38 10.4-9.45 10.4-7.65L10.4-7.65Q10.4-6.65 10.53-5.68 10.65-4.7 10.95-3.8L10.95-3.8Q10.15-1.85 8.72-0.83 7.3 0.2 5.85 0.2Z" opacity="1" transform="matrix(1,0,0,1,0,0)" fill="#c9c9c9" class="wordmark-text-0" data-fill-palette-color="primary" id="text-0"></path></svg></g></svg></g></svg></g></svg></g></svg></g><defs></defs></svg><rect width="170.52341597796143" height="200" fill="none" stroke="none" visibility="hidden"></rect></g></svg></g></svg>